<svg width="24" height="24" viewBox="0 0 24 24" fill="none" xmlns="http://www.w3.org/2000/svg">
<path d="M13.2068 2.99826C12.8645 2.72364 12.4387 2.57397 11.9999 2.57397C11.5611 2.57397 11.1353 2.72364 10.793 2.99826L4.15018 8.32711C3.92494 8.50782 3.74315 8.73681 3.61823 8.99717C3.49332 9.25753 3.42847 9.54262 3.42847 9.8314V19.5C3.42847 20.0115 3.63166 20.502 3.99333 20.8637C4.35501 21.2254 4.84555 21.4285 5.35704 21.4285H7.4999C8.01138 21.4285 8.50192 21.2254 8.8636 20.8637C9.22528 20.502 9.42847 20.0115 9.42847 19.5V14.7857C9.42847 14.1943 9.90847 13.7143 10.4999 13.7143H13.4999C14.0913 13.7143 14.5713 14.1943 14.5713 14.7857V19.5C14.5713 20.0115 14.7745 20.502 15.1362 20.8637C15.4979 21.2254 15.9884 21.4285 16.4999 21.4285H18.6428C19.1542 21.4285 19.6448 21.2254 20.0065 20.8637C20.3681 20.502 20.5713 20.0115 20.5713 19.5V9.8314C20.5713 9.54262 20.5065 9.25753 20.3816 8.99717C20.2566 8.73681 20.0749 8.50782 19.8496 8.32711L13.2068 2.99826Z" fill="#3D6BBE"/>
</svg>
