<svg width="86" height="86" viewBox="0 0 86 86" fill="none" xmlns="http://www.w3.org/2000/svg">
<g clip-path="url(#clip0_66_478)">
<rect width="86" height="86" rx="43" fill="#1C2134"/>
<path d="M42.5 20C47.075 20 51.4626 21.7384 54.6976 24.8327C57.9326 27.9271 59.75 32.1239 59.75 36.5C59.75 40.8761 57.9326 45.0729 54.6976 48.1673C51.4626 51.2616 47.075 53 42.5 53C37.925 53 33.5374 51.2616 30.3024 48.1673C27.0674 45.0729 25.25 40.8761 25.25 36.5C25.25 32.1239 27.0674 27.9271 30.3024 24.8327C33.5374 21.7384 37.925 20 42.5 20ZM42.5 61.25C61.5613 61.25 77 68.6337 77 77.75V86H8V77.75C8 68.6337 23.4387 61.25 42.5 61.25Z" fill="#C7C7C7"/>
</g>
<defs>
<clipPath id="clip0_66_478">
<rect width="86" height="86" rx="43" fill="white"/>
</clipPath>
</defs>
</svg>
